<svg preserveAspectRatio="none" width="100%" height="100%" overflow="visible" style="display: block;" viewBox="0 0 18 18" fill="none" xmlns="http://www.w3.org/2000/svg">
<path id="Shape" fill-rule="evenodd" clip-rule="evenodd" d="M0 4.8C0 3.11984 0 2.27976 0.32698 1.63803C0.614601 1.07354 1.07354 0.614601 1.63803 0.32698C2.27976 0 3.11984 0 4.8 0H13.2C14.8802 0 15.7202 0 16.362 0.32698C16.9265 0.614601 17.3854 1.07354 17.673 1.63803C18 2.27976 18 3.11984 18 4.8V13.2C18 14.8802 18 15.7202 17.673 16.362C17.3854 16.9265 16.9265 17.3854 16.362 17.673C15.7202 18 14.8802 18 13.2 18H4.8C3.11984 18 2.27976 18 1.63803 17.673C1.07354 17.3854 0.614601 16.9265 0.32698 16.362C0 15.7202 0 14.8802 0 13.2V4.8ZM4 9C4 8.44772 4.44772 8 5 8C5.55228 8 6 8.44772 6 9V13C6 13.5523 5.55228 14 5 14C4.44772 14 4 13.5523 4 13V9ZM5 6C5.55228 6 6 5.55228 6 5C6 4.44772 5.55228 4 5 4C4.44772 4 4 4.44772 4 5C4 5.55228 4.44772 6 5 6ZM11 10C10.4477 10 10 10.4477 10 11V13C10 13.5523 9.55229 14 9 14C8.44771 14 8 13.5523 8 13V11V9C8 8.44772 8.44771 8 9 8C9.27588 8 9.52566 8.11171 9.70658 8.29237C10.0982 8.10495 10.5369 8 11 8C12.6569 8 14 9.34315 14 11V13C14 13.5523 13.5523 14 13 14C12.4477 14 12 13.5523 12 13V11C12 10.4477 11.5523 10 11 10Z" fill="var(--fill-0, #FAFAFA)"/>
</svg>
