<svg width="121" height="82" viewBox="0 0 121 82" fill="none" xmlns="http://www.w3.org/2000/svg">
<path d="M59.9206 7.07104C62.8463 29.2224 46.2089 43.3772 32.2067 46.0228M32.2067 46.0228C30.4547 46.3694 25.6833 47.1017 22.9529 46.2699C20.9383 45.6561 20.0182 45.304 18.7243 44.4579C18.2216 44.1291 13.4734 40.826 21.5248 40.4322C27.9659 40.1172 31.3299 44.028 32.2067 46.0228ZM32.2067 46.0228C39.1826 57.6175 2.45854 60.0431 0.4115 40.4322C-0.56007 31.121 18.0908 26.8188 29.3212 28.521C51.0576 31.8151 59.3782 49.6306 59.9206 74.6741" stroke="#1D1D1D" stroke-width="0.75" stroke-linecap="round"/>
<path d="M60.5965 7.07104C57.6708 29.2224 74.3082 43.3772 88.3104 46.0228M88.3104 46.0228C90.0624 46.3694 94.8338 47.1017 97.5642 46.2699C99.5788 45.6561 100.499 45.304 101.793 44.4579C102.295 44.1291 107.044 40.826 98.9923 40.4322C92.5512 40.1172 89.1872 44.028 88.3104 46.0228ZM88.3104 46.0228C81.3345 57.6175 118.059 60.0431 120.106 40.4322C121.077 31.121 102.426 26.8188 91.1959 28.521C69.4595 31.8151 61.1389 49.6306 60.5965 74.6741" stroke="#1D1D1D" stroke-width="0.75" stroke-linecap="round"/>
<path d="M53.1875 74.6741C53.1875 74.6741 60.2586 74.6741 60.2586 67.6031C60.2586 67.6031 60.2586 74.6741 67.3296 74.6741C67.3296 74.6741 60.2586 74.6741 60.2586 81.7452C60.2586 81.7452 60.2586 74.3955 53.1875 74.6741Z" fill="#1D1D1D"/>
<path d="M53.1875 7.07104C53.1875 7.07104 60.2586 7.07103 60.2586 -2.28743e-05C60.2586 -2.28743e-05 60.2586 7.07105 67.3296 7.07105C67.3296 7.07105 60.2586 7.07104 60.2586 14.1421C60.2586 14.1421 60.2586 6.79245 53.1875 7.07104Z" fill="#1D1D1D"/>
</svg>
