<svg preserveAspectRatio="none" width="100%" height="100%" overflow="visible" style="display: block;" viewBox="0 0 179 111" fill="none" xmlns="http://www.w3.org/2000/svg">
<g id="Group 481383">
<path id="Vector 5" d="M88.5127 1.10111C92.8075 33.6188 68.3843 54.3977 47.8294 58.2814M47.8294 58.2814C45.2575 58.7902 38.2532 59.8652 34.2449 58.644C31.2876 57.743 29.9369 57.2262 28.0376 55.9841C27.2996 55.5015 20.3294 50.6526 32.1486 50.0745C41.604 49.612 46.5422 55.3531 47.8294 58.2814ZM47.8294 58.2814C58.0698 75.3021 4.15978 78.8628 1.15478 50.0745C-0.271462 36.4059 27.1075 30.0904 43.5935 32.5891C75.502 37.4248 87.7165 63.5775 88.5127 100.341" stroke="var(--stroke-0, white)" stroke-width="2.20196" stroke-linecap="round"/>
<path id="Vector 6" d="M89.5054 1.10111C85.2106 33.6188 109.634 54.3977 130.189 58.2814M130.189 58.2814C132.761 58.7902 139.765 59.8652 143.773 58.644C146.73 57.743 148.081 57.2262 149.981 55.9841C150.718 55.5015 157.689 50.6526 145.87 50.0745C136.414 49.612 131.476 55.3531 130.189 58.2814ZM130.189 58.2814C119.948 75.3021 173.858 78.8628 176.863 50.0745C178.29 36.4059 150.911 30.0904 134.425 32.5891C102.516 37.4248 90.3016 63.5775 89.5054 100.341" stroke="var(--stroke-0, white)" stroke-width="2.20196" stroke-linecap="round"/>
<path id="Rectangle 24" d="M78.6288 100.341C78.6288 100.341 89.009 100.341 89.0089 89.9606C89.0089 89.9606 89.0089 100.341 99.3891 100.341C99.3891 100.341 89.0089 100.341 89.0089 110.721C89.0089 110.721 89.0089 99.9318 78.6288 100.341Z" fill="var(--fill-0, white)"/>
</g>
</svg>
