<svg preserveAspectRatio="none" width="100%" height="100%" overflow="visible" style="display: block;" viewBox="0 0 20 20" fill="none" xmlns="http://www.w3.org/2000/svg">
<path id="Vector" d="M10 0C4.4772 0 0 4.477 0 10C0 14.816 3.5514 18.94 8.0013 19.786L8 16.625C7.5439 16.843 7.039 17 6.5 17C6.0301 17 5.5969 16.918 5.1875 16.75C4.9141 16.638 4.475 16.173 4.3125 15.844C3.9634 15.137 3.9811 14.375 3.375 14.375C3.0896 14.375 2.6539 14.257 2.6562 13.969C2.6581 13.732 3.0187 13.646 3.3125 13.625C4.2542 13.557 5.0035 14.46 5.0625 14.594C5.1125 14.707 5.2274 14.905 5.3125 15C5.5858 15.307 6.0066 15.5 6.5 15.5C7.0887 15.5 7.5982 15.224 7.8438 14.812C7.9437 14.645 8.1051 14.213 8.25 14C5.7656 13.812 4 12.492 4 9.5C4 8.622 4.2955 7.75399 4.7812 7.09399C4.6644 6.41699 4.5643 5.282 5 4C6.1799 4 7.2202 4.626 7.9062 5.125C8.2514 5.057 8.6323 5 9 5H11C11.34 5 11.7416 5.054 12.0625 5.125C12.7826 4.592 13.7774 4 15 4C15.4988 5.467 15.2522 6.82399 15.1562 7.34399C15.6218 8.05599 16.021 9.042 15.9915 9.888C15.9009 12.479 14.2196 13.879 11.7922 14.002C11.9543 14.338 12 14.615 12 15L12.0029 19.774C16.5179 18.854 20 14.815 20 10C20 4.477 15.5228 0 10 0Z" fill="var(--fill-0, #FAFAFA)"/>
</svg>
