<svg preserveAspectRatio="none" width="100%" height="100%" overflow="visible" style="display: block;" viewBox="0 0 303 414" fill="none" xmlns="http://www.w3.org/2000/svg">
<g id="Vector 3" filter="url(#filter0_f_118_140)">
<path d="M203.748 122.596L8.88291 6.99753C-16.2184 152.321 188.886 333.975 294.575 406.637C296.227 377.462 295.896 303.259 281.364 239.845C266.832 176.431 223.565 135.256 203.748 122.596Z" fill="url(#paint0_linear_118_140)"/>
<path d="M203.748 122.596L8.88291 6.99753C-16.2184 152.321 188.886 333.975 294.575 406.637C296.227 377.462 295.896 303.259 281.364 239.845C266.832 176.431 223.565 135.256 203.748 122.596Z" stroke="url(#paint1_linear_118_140)" stroke-width="0.74658"/>
</g>
<defs>
<filter id="filter0_f_118_140" x="-2.38419e-07" y="1.19209e-07" width="302.026" height="413.72" filterUnits="userSpaceOnUse" color-interpolation-filters="sRGB">
<feFlood flood-opacity="0" result="BackgroundImageFix"/>
<feBlend mode="normal" in="SourceGraphic" in2="BackgroundImageFix" result="shape"/>
<feGaussianBlur stdDeviation="3.2" result="effect1_foregroundBlur_118_140"/>
</filter>
<linearGradient id="paint0_linear_118_140" x1="266.678" y1="113.744" x2="86.6881" y2="286.269" gradientUnits="userSpaceOnUse">
<stop offset="0.177885" stop-color="white"/>
<stop offset="0.499223" stop-color="white" stop-opacity="0"/>
</linearGradient>
<linearGradient id="paint1_linear_118_140" x1="222.66" y1="84.8252" x2="122.953" y2="162.741" gradientUnits="userSpaceOnUse">
<stop stop-color="white"/>
<stop offset="1" stop-color="white" stop-opacity="0"/>
</linearGradient>
</defs>
</svg>
