<svg preserveAspectRatio="none" width="100%" height="100%" overflow="visible" style="display: block;" viewBox="0 0 179 111" fill="none" xmlns="http://www.w3.org/2000/svg">
<g id="Group 481382">
<path id="Vector 5" d="M88.5127 10.3802C92.8075 42.8978 68.3843 63.6768 47.8294 67.5604M47.8294 67.5604C45.2575 68.0693 38.2532 69.1443 34.2449 67.9231C31.2876 67.0221 29.9369 66.5053 28.0376 65.2632C27.2996 64.7805 20.3294 59.9317 32.1486 59.3535C41.604 58.8911 46.5422 64.6321 47.8294 67.5604ZM47.8294 67.5604C58.0698 84.5812 4.15978 88.1418 1.15478 59.3535C-0.271462 45.6849 27.1075 39.3694 43.5935 41.8682C75.502 46.7039 87.7165 72.8565 88.5127 109.62" stroke="var(--stroke-0, white)" stroke-width="2.20196" stroke-linecap="round"/>
<path id="Vector 6" d="M89.5054 10.3802C85.2106 42.8978 109.634 63.6768 130.189 67.5604M130.189 67.5604C132.761 68.0693 139.765 69.1443 143.773 67.9231C146.73 67.0221 148.081 66.5053 149.981 65.2632C150.718 64.7805 157.689 59.9317 145.87 59.3535C136.414 58.8911 131.476 64.6321 130.189 67.5604ZM130.189 67.5604C119.948 84.5812 173.858 88.1418 176.863 59.3535C178.29 45.6849 150.911 39.3694 134.425 41.8682C102.516 46.7039 90.3016 72.8565 89.5054 109.62" stroke="var(--stroke-0, white)" stroke-width="2.20196" stroke-linecap="round"/>
<path id="Rectangle 25" d="M78.6288 10.3802C78.6288 10.3802 89.009 10.3801 89.0089 0C89.0089 0 89.0089 10.3802 99.3891 10.3802C99.3891 10.3802 89.0089 10.3802 89.0089 20.7603C89.0089 20.7603 89.0089 9.97119 78.6288 10.3802Z" fill="var(--fill-0, white)"/>
</g>
</svg>
