<svg width="295" height="295" viewBox="0 0 295 295" fill="none" xmlns="http://www.w3.org/2000/svg">
<path d="M233.185 73.6244C223.401 77.418 220.233 87.2611 219.811 91.6896C219.6 93.6814 219.487 98.5789 220.726 102.234C222.275 106.803 225.161 116.855 225.301 125.15C225.442 133.445 226.709 142.934 220.022 162.265C213.335 181.596 202.143 196.92 194.189 181.174C186.235 165.428 177.014 150.315 167.582 131.687C158.149 113.059 134.921 118.613 130.909 130.914C127.699 140.755 123.612 153.619 121.969 158.821C118.637 169.81 109.763 192.717 101.767 195.022C91.7719 197.904 77.4847 199.232 74.5968 165.218C71.7499 131.687 76.7789 95.7503 76.7789 89.4406C76.7789 83.0769 81.2838 59.4954 64.2495 56.4024C47.2152 53.3095 39.3315 66.7357 34.7562 83.3953C30.1809 100.055 26.3798 133.867 28.7027 161.422C31.1244 190.149 37.5014 210.557 62.9121 231.505C88.3228 252.453 124.313 234.388 136.258 219.063C145.902 206.691 149.773 196.217 151.533 193.124C158.121 208.477 169.67 220.023 174.621 223.877C179.97 228.482 187.687 231.622 196.16 232.559C216.995 234.865 232.669 222.132 237.901 215.478C247.784 205.555 257.815 190.263 262.819 168.943C272.336 128.398 265.423 95.1107 260.778 83.5355C259.145 78.8679 254.349 74.7726 252.542 73.6245C249.773 71.914 242.758 69.9128 233.185 73.6244Z" fill="black"/>
<path d="M211.213 38.1758C213.094 20.7959 225.867 16.7988 232.019 17.0076C235.613 17.0076 235.821 16.9776 237.756 17.2165C238.362 17.2914 238.931 17.3955 239.899 17.6343C240.391 17.7559 241.005 17.9128 241.765 18.1914C242.232 18.3625 244.77 19.1849 247.048 20.9766C249.019 22.528 251.038 24.5323 251.995 26.7563C259.875 45.069 250.129 54.6998 242.94 58.0206C230.429 63.8001 209.333 55.5557 211.213 38.1758Z" fill="black"/>
</svg>
